<svg xmlns="http://www.w3.org/2000/svg" xmlns:xlink="http://www.w3.org/1999/xlink" viewBox="0 0 176.2 176.2"><defs><style>.cls-1{fill-rule:evenodd;fill:url(#GradientFill_1);}</style><radialGradient id="GradientFill_1" cx="116.29" cy="-38.76" r="179.41" gradientUnits="userSpaceOnUse"><stop offset="0" stop-color="#0093d2"/><stop offset="0.13" stop-color="#0884c8"/><stop offset="0.51" stop-color="#1b5cad"/><stop offset="0.81" stop-color="#28449d"/><stop offset="1" stop-color="#2c3b97"/></radialGradient></defs><g id="Layer_2" data-name="Layer 2"><g id="Í_ã_1" data-name="Í¼²ã 1"><path class="cls-1" d="M133.15,19.21l-3.47,2-7.39,4.26-47,27.12v72.2L50.1,139.36V52.6l57-32.9A77.88,77.88,0,0,0,32,149.93l-4.16,2.4A88.1,88.1,0,0,1,138.72,16l-5.57,3.22ZM79.25,82.64V93.56h21.62v30L53,151.22h0l-15.57,9A88.1,88.1,0,0,0,148.39,23.87L143,27a77.9,77.9,0,0,1-74.5,129.87l57.56-33.23V36.84L100.87,51.4V82.64Z"/></g></g></svg>