<svg xmlns="http://www.w3.org/2000/svg" viewBox="0 0 233.95 34.66"><defs><style>.cls-1{fill:#2b449c;fill-rule:evenodd;}</style></defs><g id="Layer_2" data-name="Layer 2"><g id="Í_ã_1" data-name="Í¼²ã 1"><path class="cls-1" d="M0,.43V34.31H8.6V20.77H23.43V34.31H32V.43h-8.6V12.9H8.6V.43ZM51.71.09C36.87.09,35,4.08,35,18.1s3.66,16.56,17.16,16.56c14.7,0,16.25-4.6,16.25-18C68.43,3,65,.09,51.71.09Zm0,7.87c7.52,0,8.12,0,8.12,9.41s-.47,9.42-8.68,9.42c-6.88,0-7.53-.17-7.53-9.42C43.62,8,44.22,8,51.71,8ZM71.42.43V34.31H91.5c9.16,0,12.56-3.22,12.56-17.24,0-12.47-2.5-16.64-12.3-16.64ZM90.68,8.3c3.87,0,4.78,1.12,4.78,8.13,0,8.94-.39,10-4.91,10H80V8.3ZM113.06,0l6.71,13,6.75-13h10L124.07,20.51V33.88h-8.6V20.51L103,0Zm56.35,8.21V.43H138.79V8.21h11v26.1h8.6V8.21Zm2.3-7.78V34.31h28V26.44H180.27v-5.5h18.18V13.42H180.27V8.3h19V.43Zm39.36,16V.43h-8.6V34.31h8.6V17.11l12,17.2H234l-12.9-17.54L233.43.43H222.77Z"/></g></g></svg>